<svg width="128" height="58" viewBox="0 0 128 58" fill="none" xmlns="http://www.w3.org/2000/svg">
<path d="M81.3545 16.8383L87.8373 35.0813H98.9858L101.524 29.5447L104.303 35.0813L106.704 26.2333L102.909 17.0172H100.156L93.8124 30.7975L89.462 16.8383H81.3545Z" fill="white"/>
<path d="M13.6851 27.8065V32.0985H19.8064C19.0324 33.9982 16.8161 35.2647 14.2128 35.2647C10.4837 35.2647 8.05625 32.591 8.05625 28.686C8.05625 24.7458 10.5189 22.0721 14.2128 22.0721C16.7106 22.0721 18.9269 23.409 19.8064 25.4846H26.948C25.8926 19.7854 20.6155 15.7397 14.1424 15.7397C6.57868 15.7397 1.09058 21.1926 1.09058 28.686C1.09058 36.1793 6.68422 41.5971 14.2128 41.5971C21.9172 41.5971 27.1942 35.8627 27.1942 27.8065H13.6851ZM43.8603 40.9638H51.424L46.5339 32.0281C48.9614 30.5857 50.4389 28.0879 50.4389 25.0624C50.4389 19.9261 46.5691 16.3378 41.2921 16.3378H30.5973V40.9638H37.3871V33.4353H39.8497L43.8603 40.9638ZM37.3871 22.3887H40.483C42.3827 22.3887 43.4733 23.5145 43.4733 25.0624C43.4733 26.5752 42.3827 27.7361 40.483 27.7361H37.3871V22.3887ZM66.4431 41.5971C74.3587 41.5971 79.9875 36.2145 79.9875 28.686C79.9875 21.1223 74.3587 15.7397 66.4431 15.7397C58.5276 15.7397 52.8988 21.1574 52.8988 28.686C52.8988 36.1793 58.5276 41.5971 66.4431 41.5971ZM66.4431 35.2998C62.714 35.2998 59.9348 32.4854 59.9348 28.686C59.9348 24.8514 62.714 22.0369 66.4431 22.0369C70.2074 22.0369 72.9163 24.8162 72.9163 28.686C72.9163 32.5206 70.2074 35.2998 66.4431 35.2998Z" fill="white"/>
<path d="M7.01629 11.4219V3.74627H4.14525V14H10.6637V11.4219H7.01629ZM14.7395 11.5538V10.0157H18.1086V7.70128H14.7395V6.19252H18.4895V3.74627H11.9271V14H18.6213V11.5538H14.7395ZM27.9285 3.74627H19.5205V6.29505H22.3036V14H25.1454V6.29505H27.9285V3.74627ZM32.7257 14.2637C35.1133 14.2637 36.8272 13.0918 36.8272 10.8506C36.8272 8.52158 34.8643 8.00889 33.3409 7.62804C32.3888 7.37902 31.6124 7.18859 31.6124 6.60267C31.6124 6.11927 32.0958 5.89955 32.5939 5.89955C33.1798 5.89955 33.6632 6.20716 33.6632 6.86633H36.5049C36.5049 4.77164 35.084 3.5119 32.6232 3.5119C30.2062 3.5119 28.7267 4.6691 28.7267 6.69055C28.7267 9.01962 30.6164 9.47371 32.0958 9.83991C33.0772 10.0743 33.8829 10.2647 33.8829 10.9092C33.8829 11.4659 33.3116 11.7881 32.7257 11.7881C32.0812 11.7881 31.5099 11.4219 31.5099 10.6895H28.5949C28.5949 12.9307 30.2209 14.2637 32.7257 14.2637Z" fill="white"/>
<path d="M106.057 37.0992H84.9604L78.6143 42.6874H112.06L120.585 12.0062L124.935 12.5431L120.387 0.015564L109.313 9.50068L113.664 10.5745L106.057 37.0992Z" fill="white"/>
</svg>
